<?xml version="1.0" encoding="UTF-8" standalone="no"?>
<!-- Created with Inkscape (http://www.inkscape.org/) -->

<svg
   version="1.1"
   id="svg1"
   width="6400"
   height="6400"
   viewBox="0 0 6400 6400"
   sodipodi:docname="Ludo Board Game Illustration.eps"
   xmlns:inkscape="http://www.inkscape.org/namespaces/inkscape"
   xmlns:sodipodi="http://sodipodi.sourceforge.net/DTD/sodipodi-0.dtd"
   xmlns="http://www.w3.org/2000/svg"
   xmlns:svg="http://www.w3.org/2000/svg">
  <defs
     id="defs1" />
  <sodipodi:namedview
     id="namedview1"
     pagecolor="#ffffff"
     bordercolor="#000000"
     borderopacity="0.25"
     inkscape:showpageshadow="2"
     inkscape:pageopacity="0.0"
     inkscape:pagecheckerboard="0"
     inkscape:deskcolor="#d1d1d1">
    <inkscape:page
       x="0"
       y="0"
       inkscape:label="1"
       id="page1"
       width="6400"
       height="6400"
       margin="0"
       bleed="0" />
  </sodipodi:namedview>
  <g
     id="g1"
     inkscape:groupmode="layer"
     inkscape:label="1">
    <g
       id="group-R5">
      <path
         id="path2"
         d="M 3298.36,44701.6 H 15810.6 V 32189.4 H 3298.36 Z M 3230.55,28936.7 H 19063.3 V 48000 H 0.00390625 V 28936.7 H 3139.12 h 91.43"
         style="fill:#ff0201;fill-opacity:1;fill-rule:nonzero;stroke:none"
         transform="matrix(0.13333333,0,0,-0.13333333,0,6400)" />
      <path
         id="path3"
         d="M 19154.7,28780.7 V 19219.3 L 23935.4,24000 Z"
         style="fill:#ff0201;fill-opacity:1;fill-rule:nonzero;stroke:none"
         transform="matrix(0.13333333,0,0,-0.13333333,0,6400)" />
      <path
         id="path4"
         d="m 23935.4,24000 -4780.7,4780.7 v 0 L 23935.4,24000 v 0"
         style="fill:#ff0201;fill-opacity:1;fill-rule:nonzero;stroke:none"
         transform="matrix(0.13333333,0,0,-0.13333333,0,6400)" />
      <path
         id="path5"
         d="M 6323.94,28845.3 H 3230.55 v -3169.2 h 3093.39 v 3169.2"
         style="fill:#ff0201;fill-opacity:1;fill-rule:nonzero;stroke:none"
         transform="matrix(0.13333333,0,0,-0.13333333,0,6400)" />
      <path
         id="path6"
         d="m 15969.9,25584.6 v -3169.2 h 3093.4 v 3169.2 h -3093.4"
         style="fill:#ff0201;fill-opacity:1;fill-rule:nonzero;stroke:none"
         transform="matrix(0.13333333,0,0,-0.13333333,0,6400)" />
      <path
         id="path7"
         d="m 12785,25584.6 v -3169.2 h 3093.4 v 3169.2 H 12785"
         style="fill:#ff0201;fill-opacity:1;fill-rule:nonzero;stroke:none"
         transform="matrix(0.13333333,0,0,-0.13333333,0,6400)" />
      <path
         id="path8"
         d="m 9600.2,25584.6 v -3169.2 h 3093.4 v 3169.2 H 9600.2"
         style="fill:#ff0201;fill-opacity:1;fill-rule:nonzero;stroke:none"
         transform="matrix(0.13333333,0,0,-0.13333333,0,6400)" />
      <path
         id="path9"
         d="m 6415.37,25584.6 v -3169.2 h 3093.4 v 3169.2 h -3093.4"
         style="fill:#ff0201;fill-opacity:1;fill-rule:nonzero;stroke:none"
         transform="matrix(0.13333333,0,0,-0.13333333,0,6400)" />
      <path
         id="path10"
         d="M 6323.94,25584.6 H 3230.55 v -3169.2 h 3093.39 v 3169.2"
         style="fill:#ff0201;fill-opacity:1;fill-rule:nonzero;stroke:none"
         transform="matrix(0.13333333,0,0,-0.13333333,0,6400)" />
      <path
         id="path11"
         d="m 6798.61,42941.8 c -959.67,0 -1740.41,-780.7 -1740.41,-1740.4 0,-959.7 780.74,-1740.4 1740.41,-1740.4 959.66,0 1740.41,780.7 1740.41,1740.4 0,959.7 -780.75,1740.4 -1740.41,1740.4"
         style="fill:#ff0201;fill-opacity:1;fill-rule:nonzero;stroke:none"
         transform="matrix(0.13333333,0,0,-0.13333333,0,6400)" />
      <path
         id="path12"
         d="m 6798.61,37430 c -959.67,0 -1740.41,-780.7 -1740.41,-1740.4 0,-959.6 780.74,-1740.4 1740.41,-1740.4 959.66,0 1740.41,780.8 1740.41,1740.4 0,959.7 -780.75,1740.4 -1740.41,1740.4"
         style="fill:#ff0201;fill-opacity:1;fill-rule:nonzero;stroke:none"
         transform="matrix(0.13333333,0,0,-0.13333333,0,6400)" />
      <path
         id="path13"
         d="m 12310.4,42941.8 c -959.7,0 -1740.4,-780.7 -1740.4,-1740.4 0,-959.7 780.7,-1740.4 1740.4,-1740.4 959.6,0 1740.4,780.7 1740.4,1740.4 0,959.7 -780.8,1740.4 -1740.4,1740.4"
         style="fill:#ff0201;fill-opacity:1;fill-rule:nonzero;stroke:none"
         transform="matrix(0.13333333,0,0,-0.13333333,0,6400)" />
      <path
         id="path14"
         d="m 12310.4,37430 c -959.7,0 -1740.4,-780.7 -1740.4,-1740.4 0,-959.6 780.7,-1740.4 1740.4,-1740.4 959.6,0 1740.4,780.8 1740.4,1740.4 0,959.7 -780.8,1740.4 -1740.4,1740.4"
         style="fill:#ff0201;fill-opacity:1;fill-rule:nonzero;stroke:none"
         transform="matrix(0.13333333,0,0,-0.13333333,0,6400)" />
      <path
         id="path15"
         d="M 32189.4,44701.6 H 44701.6 V 32189.4 H 32189.4 Z m -3252.7,67.9 V 28936.7 H 48000 V 48000 H 28936.7 v -3139.1 -91.4"
         style="fill:#01aa27;fill-opacity:1;fill-rule:nonzero;stroke:none"
         transform="matrix(0.13333333,0,0,-0.13333333,0,6400)" />
      <path
         id="path16"
         d="m 25676.1,28845.3 h -6456.8 l 4780.7,-4780.6 4780.7,4780.6 h -3104.6"
         style="fill:#01aa27;fill-opacity:1;fill-rule:nonzero;stroke:none"
         transform="matrix(0.13333333,0,0,-0.13333333,0,6400)" />
      <path
         id="path17"
         d="m 25584.6,41676.1 v 3093.4 h -3169.2 v -3093.4 h 3169.2"
         style="fill:#01aa27;fill-opacity:1;fill-rule:nonzero;stroke:none"
         transform="matrix(0.13333333,0,0,-0.13333333,0,6400)" />
      <path
         id="path18"
         d="m 25584.6,41584.6 h -3169.2 v -3093.4 h 3169.2 v 3093.4"
         style="fill:#01aa27;fill-opacity:1;fill-rule:nonzero;stroke:none"
         transform="matrix(0.13333333,0,0,-0.13333333,0,6400)" />
      <path
         id="path19"
         d="m 25584.6,38399.8 h -3169.2 v -3093.4 h 3169.2 v 3093.4"
         style="fill:#01aa27;fill-opacity:1;fill-rule:nonzero;stroke:none"
         transform="matrix(0.13333333,0,0,-0.13333333,0,6400)" />
      <path
         id="path20"
         d="m 25584.6,35215 h -3169.2 v -3093.4 h 3169.2 V 35215"
         style="fill:#01aa27;fill-opacity:1;fill-rule:nonzero;stroke:none"
         transform="matrix(0.13333333,0,0,-0.13333333,0,6400)" />
      <path
         id="path21"
         d="m 25584.6,32030.1 h -3169.2 v -3093.4 h 3169.2 v 3093.4"
         style="fill:#01aa27;fill-opacity:1;fill-rule:nonzero;stroke:none"
         transform="matrix(0.13333333,0,0,-0.13333333,0,6400)" />
      <path
         id="path22"
         d="m 28845.3,41676.1 v 3093.4 h -3169.2 v -3093.4 h 3169.2"
         style="fill:#01aa27;fill-opacity:1;fill-rule:nonzero;stroke:none"
         transform="matrix(0.13333333,0,0,-0.13333333,0,6400)" />
      <path
         id="path23"
         d="m 35689.6,42941.8 c -959.6,0 -1740.4,-780.7 -1740.4,-1740.4 0,-959.7 780.8,-1740.4 1740.4,-1740.4 959.7,0 1740.4,780.7 1740.4,1740.4 0,959.7 -780.7,1740.4 -1740.4,1740.4"
         style="fill:#01aa27;fill-opacity:1;fill-rule:nonzero;stroke:none"
         transform="matrix(0.13333333,0,0,-0.13333333,0,6400)" />
      <path
         id="path24"
         d="m 35689.6,37430 c -959.6,0 -1740.4,-780.7 -1740.4,-1740.4 0,-959.6 780.8,-1740.4 1740.4,-1740.4 959.7,0 1740.4,780.8 1740.4,1740.4 0,959.7 -780.7,1740.4 -1740.4,1740.4"
         style="fill:#01aa27;fill-opacity:1;fill-rule:nonzero;stroke:none"
         transform="matrix(0.13333333,0,0,-0.13333333,0,6400)" />
      <path
         id="path25"
         d="m 41201.4,42941.8 c -959.7,0 -1740.4,-780.7 -1740.4,-1740.4 0,-959.7 780.7,-1740.4 1740.4,-1740.4 959.7,0 1740.4,780.7 1740.4,1740.4 0,959.7 -780.7,1740.4 -1740.4,1740.4"
         style="fill:#01aa27;fill-opacity:1;fill-rule:nonzero;stroke:none"
         transform="matrix(0.13333333,0,0,-0.13333333,0,6400)" />
      <path
         id="path26"
         d="m 41201.4,37430 c -959.7,0 -1740.4,-780.7 -1740.4,-1740.4 0,-959.6 780.7,-1740.4 1740.4,-1740.4 959.7,0 1740.4,780.8 1740.4,1740.4 0,959.7 -780.7,1740.4 -1740.4,1740.4"
         style="fill:#01aa27;fill-opacity:1;fill-rule:nonzero;stroke:none"
         transform="matrix(0.13333333,0,0,-0.13333333,0,6400)" />
      <path
         id="path27"
         d="M 15810.6,3298.4 H 3298.36 V 15810.6 H 15810.6 Z m 3252.7,-67.9 V 19063.3 H 0.00390625 V 0 H 19063.3 v 3139.1 91.4"
         style="fill:#00b3ff;fill-opacity:1;fill-rule:nonzero;stroke:none"
         transform="matrix(0.13333333,0,0,-0.13333333,0,6400)" />
      <path
         id="path28"
         d="m 22415.4,19154.7 h 6365.3 l -3380.5,3380.4 -1400.2,1400.3 -4780.7,-4780.7 h 3104.6 91.5"
         style="fill:#00b3ff;fill-opacity:1;fill-rule:nonzero;stroke:none"
         transform="matrix(0.13333333,0,0,-0.13333333,0,6400)" />
      <path
         id="path29"
         d="M 19154.7,6323.9 V 3230.5 h 3169.2 v 3093.4 h -3169.2"
         style="fill:#00b3ff;fill-opacity:1;fill-rule:nonzero;stroke:none"
         transform="matrix(0.13333333,0,0,-0.13333333,0,6400)" />
      <path
         id="path30"
         d="m 22415.4,15969.9 h 3169.2 v 3093.4 h -3169.2 v -3093.4"
         style="fill:#00b3ff;fill-opacity:1;fill-rule:nonzero;stroke:none"
         transform="matrix(0.13333333,0,0,-0.13333333,0,6400)" />
      <path
         id="path31"
         d="m 22415.4,12785 h 3169.2 v 3093.4 H 22415.4 V 12785"
         style="fill:#00b3ff;fill-opacity:1;fill-rule:nonzero;stroke:none"
         transform="matrix(0.13333333,0,0,-0.13333333,0,6400)" />
      <path
         id="path32"
         d="m 22415.4,9600.2 h 3169.2 v 3093.4 H 22415.4 V 9600.2"
         style="fill:#00b3ff;fill-opacity:1;fill-rule:nonzero;stroke:none"
         transform="matrix(0.13333333,0,0,-0.13333333,0,6400)" />
      <path
         id="path33"
         d="m 22415.4,6415.4 h 3169.2 V 9508.8 H 22415.4 V 6415.4"
         style="fill:#00b3ff;fill-opacity:1;fill-rule:nonzero;stroke:none"
         transform="matrix(0.13333333,0,0,-0.13333333,0,6400)" />
      <path
         id="path34"
         d="M 22415.4,6323.9 V 3230.5 h 3169.2 v 3093.4 h -3169.2"
         style="fill:#00b3ff;fill-opacity:1;fill-rule:nonzero;stroke:none"
         transform="matrix(0.13333333,0,0,-0.13333333,0,6400)" />
      <path
         id="path35"
         d="m 6798.61,10570 c 959.66,0 1740.41,780.7 1740.41,1740.4 0,959.6 -780.75,1740.4 -1740.41,1740.4 -959.67,0 -1740.41,-780.8 -1740.41,-1740.4 0,-959.7 780.74,-1740.4 1740.41,-1740.4"
         style="fill:#00b3ff;fill-opacity:1;fill-rule:nonzero;stroke:none"
         transform="matrix(0.13333333,0,0,-0.13333333,0,6400)" />
      <path
         id="path36"
         d="m 6798.61,5058.2 c 959.66,0 1740.41,780.7 1740.41,1740.4 0,959.7 -780.75,1740.4 -1740.41,1740.4 -959.67,0 -1740.41,-780.7 -1740.41,-1740.4 0,-959.7 780.74,-1740.4 1740.41,-1740.4"
         style="fill:#00b3ff;fill-opacity:1;fill-rule:nonzero;stroke:none"
         transform="matrix(0.13333333,0,0,-0.13333333,0,6400)" />
      <path
         id="path37"
         d="m 12310.4,10570 c 959.6,0 1740.4,780.7 1740.4,1740.4 0,959.6 -780.8,1740.4 -1740.4,1740.4 -959.7,0 -1740.4,-780.8 -1740.4,-1740.4 0,-959.7 780.7,-1740.4 1740.4,-1740.4"
         style="fill:#00b3ff;fill-opacity:1;fill-rule:nonzero;stroke:none"
         transform="matrix(0.13333333,0,0,-0.13333333,0,6400)" />
      <path
         id="path38"
         d="m 12310.4,5058.2 c 959.6,0 1740.4,780.7 1740.4,1740.4 0,959.7 -780.8,1740.4 -1740.4,1740.4 -959.7,0 -1740.4,-780.7 -1740.4,-1740.4 0,-959.7 780.7,-1740.4 1740.4,-1740.4"
         style="fill:#00b3ff;fill-opacity:1;fill-rule:nonzero;stroke:none"
         transform="matrix(0.13333333,0,0,-0.13333333,0,6400)" />
      <path
         id="path39"
         d="M 44701.6,3298.4 H 32189.4 v 12512.2 h 12512.2 z m 67.9,15764.9 H 28936.7 V 0 H 48000 v 19063.3 h -3139.1 -91.4"
         style="fill:#fde801;fill-opacity:1;fill-rule:nonzero;stroke:none"
         transform="matrix(0.13333333,0,0,-0.13333333,0,6400)" />
      <path
         id="path40"
         d="m 28845.3,22415.4 v 6365.3 L 25464.9,25400.2 24064.7,24000 28845.3,19219.3 v 3104.6 91.5"
         style="fill:#fde801;fill-opacity:1;fill-rule:nonzero;stroke:none"
         transform="matrix(0.13333333,0,0,-0.13333333,0,6400)" />
      <path
         id="path41"
         d="m 24064.7,24000 4780.6,-4780.7 v 0 L 24064.7,24000 v 0"
         style="fill:#fde801;fill-opacity:1;fill-rule:nonzero;stroke:none"
         transform="matrix(0.13333333,0,0,-0.13333333,0,6400)" />
      <path
         id="path42"
         d="m 28845.3,28780.7 v 0 l -3380.4,-3380.5 z"
         style="fill:#fde801;fill-opacity:1;fill-rule:nonzero;stroke:none"
         transform="matrix(0.13333333,0,0,-0.13333333,0,6400)" />
      <path
         id="path43"
         d="m 41676.1,22415.4 h 3093.4 v 3169.2 h -3093.4 v -3169.2"
         style="fill:#fde801;fill-opacity:1;fill-rule:nonzero;stroke:none"
         transform="matrix(0.13333333,0,0,-0.13333333,0,6400)" />
      <path
         id="path44"
         d="m 38491.2,25584.6 v -3169.2 h 3093.4 v 3169.2 h -3093.4"
         style="fill:#fde801;fill-opacity:1;fill-rule:nonzero;stroke:none"
         transform="matrix(0.13333333,0,0,-0.13333333,0,6400)" />
      <path
         id="path45"
         d="m 35306.4,25584.6 v -3169.2 h 3093.4 v 3169.2 h -3093.4"
         style="fill:#fde801;fill-opacity:1;fill-rule:nonzero;stroke:none"
         transform="matrix(0.13333333,0,0,-0.13333333,0,6400)" />
      <path
         id="path46"
         d="M 32121.6,25584.6 V 22415.4 H 35215 v 3169.2 h -3093.4"
         style="fill:#fde801;fill-opacity:1;fill-rule:nonzero;stroke:none"
         transform="matrix(0.13333333,0,0,-0.13333333,0,6400)" />
      <path
         id="path47"
         d="m 28936.7,25584.6 v -3169.2 h 3093.4 v 3169.2 h -3093.4"
         style="fill:#fde801;fill-opacity:1;fill-rule:nonzero;stroke:none"
         transform="matrix(0.13333333,0,0,-0.13333333,0,6400)" />
      <path
         id="path48"
         d="m 41676.1,19154.7 h 3093.4 v 3169.2 h -3093.4 v -3169.2"
         style="fill:#fde801;fill-opacity:1;fill-rule:nonzero;stroke:none"
         transform="matrix(0.13333333,0,0,-0.13333333,0,6400)" />
      <path
         id="path49"
         d="m 35689.6,10570 c 959.7,0 1740.4,780.7 1740.4,1740.4 0,959.6 -780.7,1740.4 -1740.4,1740.4 -959.6,0 -1740.4,-780.8 -1740.4,-1740.4 0,-959.7 780.8,-1740.4 1740.4,-1740.4"
         style="fill:#fde801;fill-opacity:1;fill-rule:nonzero;stroke:none"
         transform="matrix(0.13333333,0,0,-0.13333333,0,6400)" />
      <path
         id="path50"
         d="m 35689.6,5058.2 c 959.7,0 1740.4,780.7 1740.4,1740.4 0,959.7 -780.7,1740.4 -1740.4,1740.4 -959.6,0 -1740.4,-780.7 -1740.4,-1740.4 0,-959.7 780.8,-1740.4 1740.4,-1740.4"
         style="fill:#fde801;fill-opacity:1;fill-rule:nonzero;stroke:none"
         transform="matrix(0.13333333,0,0,-0.13333333,0,6400)" />
      <path
         id="path51"
         d="m 41201.4,10570 c 959.7,0 1740.4,780.7 1740.4,1740.4 0,959.6 -780.7,1740.4 -1740.4,1740.4 -959.7,0 -1740.4,-780.8 -1740.4,-1740.4 0,-959.7 780.7,-1740.4 1740.4,-1740.4"
         style="fill:#fde801;fill-opacity:1;fill-rule:nonzero;stroke:none"
         transform="matrix(0.13333333,0,0,-0.13333333,0,6400)" />
      <path
         id="path52"
         d="m 41201.4,5058.2 c 959.7,0 1740.4,780.7 1740.4,1740.4 0,959.7 -780.7,1740.4 -1740.4,1740.4 -959.7,0 -1740.4,-780.7 -1740.4,-1740.4 0,-959.7 780.7,-1740.4 1740.4,-1740.4"
         style="fill:#fde801;fill-opacity:1;fill-rule:nonzero;stroke:none"
         transform="matrix(0.13333333,0,0,-0.13333333,0,6400)" />
      <path
         id="path53"
         d="M 22323.9,44860.9 V 48000 h -3169.2 v -3139.1 h 3169.2"
         style="fill:#ffffff;fill-opacity:1;fill-rule:nonzero;stroke:none"
         transform="matrix(0.13333333,0,0,-0.13333333,0,6400)" />
      <path
         id="path54"
         d="m 19154.7,44769.5 v -3093.4 h 3169.2 v 3093.4 h -3169.2"
         style="fill:#ffffff;fill-opacity:1;fill-rule:nonzero;stroke:none"
         transform="matrix(0.13333333,0,0,-0.13333333,0,6400)" />
      <path
         id="path55"
         d="m 19154.7,41584.6 v -3093.4 h 3169.2 v 3093.4 h -3169.2"
         style="fill:#ffffff;fill-opacity:1;fill-rule:nonzero;stroke:none"
         transform="matrix(0.13333333,0,0,-0.13333333,0,6400)" />
      <path
         id="path56"
         d="m 19154.7,38399.8 v -3093.4 h 3169.2 v 3093.4 h -3169.2"
         style="fill:#ffffff;fill-opacity:1;fill-rule:nonzero;stroke:none"
         transform="matrix(0.13333333,0,0,-0.13333333,0,6400)" />
      <path
         id="path57"
         d="m 19154.7,35215 v -3093.4 h 3169.2 V 35215 h -3169.2"
         style="fill:#ffffff;fill-opacity:1;fill-rule:nonzero;stroke:none"
         transform="matrix(0.13333333,0,0,-0.13333333,0,6400)" />
      <path
         id="path58"
         d="m 22323.9,32030.1 h -3169.2 v -3093.4 h 3169.2 v 3093.4"
         style="fill:#ffffff;fill-opacity:1;fill-rule:nonzero;stroke:none"
         transform="matrix(0.13333333,0,0,-0.13333333,0,6400)" />
      <path
         id="path59"
         d="M 25584.6,44860.9 V 48000 h -3169.2 v -3139.1 h 3169.2"
         style="fill:#ffffff;fill-opacity:1;fill-rule:nonzero;stroke:none"
         transform="matrix(0.13333333,0,0,-0.13333333,0,6400)" />
      <path
         id="path60"
         d="M 28845.3,44860.9 V 48000 h -3169.2 v -3139.1 h 3169.2"
         style="fill:#ffffff;fill-opacity:1;fill-rule:nonzero;stroke:none"
         transform="matrix(0.13333333,0,0,-0.13333333,0,6400)" />
      <path
         id="path61"
         d="m 28845.3,38491.2 v 3093.4 h -3169.2 v -3093.4 h 3169.2"
         style="fill:#ffffff;fill-opacity:1;fill-rule:nonzero;stroke:none"
         transform="matrix(0.13333333,0,0,-0.13333333,0,6400)" />
      <path
         id="path62"
         d="m 28845.3,35306.4 v 3093.4 h -3169.2 v -3093.4 h 3169.2"
         style="fill:#ffffff;fill-opacity:1;fill-rule:nonzero;stroke:none"
         transform="matrix(0.13333333,0,0,-0.13333333,0,6400)" />
      <path
         id="path63"
         d="M 28845.3,32121.6 V 35215 h -3169.2 v -3093.4 h 3169.2"
         style="fill:#ffffff;fill-opacity:1;fill-rule:nonzero;stroke:none"
         transform="matrix(0.13333333,0,0,-0.13333333,0,6400)" />
      <path
         id="path64"
         d="m 28845.3,28936.7 v 3093.4 h -3169.2 v -3093.4 h 3169.2"
         style="fill:#ffffff;fill-opacity:1;fill-rule:nonzero;stroke:none"
         transform="matrix(0.13333333,0,0,-0.13333333,0,6400)" />
      <path
         id="path65"
         d="m 19154.7,19063.3 v -3093.4 h 3169.2 v 3093.4 h -3169.2"
         style="fill:#ffffff;fill-opacity:1;fill-rule:nonzero;stroke:none"
         transform="matrix(0.13333333,0,0,-0.13333333,0,6400)" />
      <path
         id="path66"
         d="M 19154.7,15878.4 V 12785 h 3169.2 v 3093.4 h -3169.2"
         style="fill:#ffffff;fill-opacity:1;fill-rule:nonzero;stroke:none"
         transform="matrix(0.13333333,0,0,-0.13333333,0,6400)" />
      <path
         id="path67"
         d="M 19154.7,12693.6 V 9600.2 h 3169.2 v 3093.4 h -3169.2"
         style="fill:#ffffff;fill-opacity:1;fill-rule:nonzero;stroke:none"
         transform="matrix(0.13333333,0,0,-0.13333333,0,6400)" />
      <path
         id="path68"
         d="M 19154.7,9508.8 V 6415.4 h 3169.2 v 3093.4 h -3169.2"
         style="fill:#ffffff;fill-opacity:1;fill-rule:nonzero;stroke:none"
         transform="matrix(0.13333333,0,0,-0.13333333,0,6400)" />
      <path
         id="path69"
         d="M 19154.7,3139.1 V 0 h 3169.2 v 3139.1 h -3169.2"
         style="fill:#ffffff;fill-opacity:1;fill-rule:nonzero;stroke:none"
         transform="matrix(0.13333333,0,0,-0.13333333,0,6400)" />
      <path
         id="path70"
         d="M 22415.4,3139.1 V 0 h 3169.2 v 3139.1 h -3169.2"
         style="fill:#ffffff;fill-opacity:1;fill-rule:nonzero;stroke:none"
         transform="matrix(0.13333333,0,0,-0.13333333,0,6400)" />
      <path
         id="path71"
         d="m 25676.1,15969.9 h 3169.2 v 3093.4 h -3169.2 v -3093.4"
         style="fill:#ffffff;fill-opacity:1;fill-rule:nonzero;stroke:none"
         transform="matrix(0.13333333,0,0,-0.13333333,0,6400)" />
      <path
         id="path72"
         d="m 28845.3,12785 v 3093.4 H 25676.1 V 12785 h 3169.2"
         style="fill:#ffffff;fill-opacity:1;fill-rule:nonzero;stroke:none"
         transform="matrix(0.13333333,0,0,-0.13333333,0,6400)" />
      <path
         id="path73"
         d="m 28845.3,9600.2 v 3093.4 H 25676.1 V 9600.2 h 3169.2"
         style="fill:#ffffff;fill-opacity:1;fill-rule:nonzero;stroke:none"
         transform="matrix(0.13333333,0,0,-0.13333333,0,6400)" />
      <path
         id="path74"
         d="M 28845.3,6415.4 V 9508.8 H 25676.1 V 6415.4 h 3169.2"
         style="fill:#ffffff;fill-opacity:1;fill-rule:nonzero;stroke:none"
         transform="matrix(0.13333333,0,0,-0.13333333,0,6400)" />
      <path
         id="path75"
         d="M 28845.3,3230.5 V 6323.9 H 25676.1 V 3230.5 h 3169.2"
         style="fill:#ffffff;fill-opacity:1;fill-rule:nonzero;stroke:none"
         transform="matrix(0.13333333,0,0,-0.13333333,0,6400)" />
      <path
         id="path76"
         d="M 25676.1,3139.1 V 0 h 3169.2 v 3139.1 h -3169.2"
         style="fill:#ffffff;fill-opacity:1;fill-rule:nonzero;stroke:none"
         transform="matrix(0.13333333,0,0,-0.13333333,0,6400)" />
      <path
         id="path77"
         d="M 44860.9,28845.3 V 25676.1 H 48000 v 3169.2 h -3139.1"
         style="fill:#ffffff;fill-opacity:1;fill-rule:nonzero;stroke:none"
         transform="matrix(0.13333333,0,0,-0.13333333,0,6400)" />
      <path
         id="path78"
         d="m 41676.1,25676.1 h 3093.4 v 3169.2 h -3093.4 v -3169.2"
         style="fill:#ffffff;fill-opacity:1;fill-rule:nonzero;stroke:none"
         transform="matrix(0.13333333,0,0,-0.13333333,0,6400)" />
      <path
         id="path79"
         d="m 41584.6,28845.3 h -3093.4 v -3169.2 h 3093.4 v 3169.2"
         style="fill:#ffffff;fill-opacity:1;fill-rule:nonzero;stroke:none"
         transform="matrix(0.13333333,0,0,-0.13333333,0,6400)" />
      <path
         id="path80"
         d="m 38399.8,28845.3 h -3093.4 v -3169.2 h 3093.4 v 3169.2"
         style="fill:#ffffff;fill-opacity:1;fill-rule:nonzero;stroke:none"
         transform="matrix(0.13333333,0,0,-0.13333333,0,6400)" />
      <path
         id="path81"
         d="M 35215,28845.3 H 32121.6 V 25676.1 H 35215 v 3169.2"
         style="fill:#ffffff;fill-opacity:1;fill-rule:nonzero;stroke:none"
         transform="matrix(0.13333333,0,0,-0.13333333,0,6400)" />
      <path
         id="path82"
         d="m 32030.1,25676.1 v 3169.2 h -3093.4 v -3169.2 h 3093.4"
         style="fill:#ffffff;fill-opacity:1;fill-rule:nonzero;stroke:none"
         transform="matrix(0.13333333,0,0,-0.13333333,0,6400)" />
      <path
         id="path83"
         d="M 44860.9,22415.4 H 48000 v 3169.2 h -3139.1 v -3169.2"
         style="fill:#ffffff;fill-opacity:1;fill-rule:nonzero;stroke:none"
         transform="matrix(0.13333333,0,0,-0.13333333,0,6400)" />
      <path
         id="path84"
         d="M 44860.9,19154.7 H 48000 v 3169.2 h -3139.1 v -3169.2"
         style="fill:#ffffff;fill-opacity:1;fill-rule:nonzero;stroke:none"
         transform="matrix(0.13333333,0,0,-0.13333333,0,6400)" />
      <path
         id="path85"
         d="m 38491.2,19154.7 h 3093.4 v 3169.2 h -3093.4 v -3169.2"
         style="fill:#ffffff;fill-opacity:1;fill-rule:nonzero;stroke:none"
         transform="matrix(0.13333333,0,0,-0.13333333,0,6400)" />
      <path
         id="path86"
         d="m 35306.4,19154.7 h 3093.4 v 3169.2 h -3093.4 v -3169.2"
         style="fill:#ffffff;fill-opacity:1;fill-rule:nonzero;stroke:none"
         transform="matrix(0.13333333,0,0,-0.13333333,0,6400)" />
      <path
         id="path87"
         d="M 32121.6,19154.7 H 35215 v 3169.2 h -3093.4 v -3169.2"
         style="fill:#ffffff;fill-opacity:1;fill-rule:nonzero;stroke:none"
         transform="matrix(0.13333333,0,0,-0.13333333,0,6400)" />
      <path
         id="path88"
         d="m 28936.7,19154.7 h 3093.4 v 3169.2 h -3093.4 v -3169.2"
         style="fill:#ffffff;fill-opacity:1;fill-rule:nonzero;stroke:none"
         transform="matrix(0.13333333,0,0,-0.13333333,0,6400)" />
      <path
         id="path89"
         d="m 19063.3,28845.3 h -3093.4 v -3169.2 h 3093.4 v 3169.2"
         style="fill:#ffffff;fill-opacity:1;fill-rule:nonzero;stroke:none"
         transform="matrix(0.13333333,0,0,-0.13333333,0,6400)" />
      <path
         id="path90"
         d="M 15878.4,28845.3 H 12785 v -3169.2 h 3093.4 v 3169.2"
         style="fill:#ffffff;fill-opacity:1;fill-rule:nonzero;stroke:none"
         transform="matrix(0.13333333,0,0,-0.13333333,0,6400)" />
      <path
         id="path91"
         d="M 12693.6,28845.3 H 9600.2 v -3169.2 h 3093.4 v 3169.2"
         style="fill:#ffffff;fill-opacity:1;fill-rule:nonzero;stroke:none"
         transform="matrix(0.13333333,0,0,-0.13333333,0,6400)" />
      <path
         id="path92"
         d="m 9508.77,28845.3 h -3093.4 v -3169.2 h 3093.4 v 3169.2"
         style="fill:#ffffff;fill-opacity:1;fill-rule:nonzero;stroke:none"
         transform="matrix(0.13333333,0,0,-0.13333333,0,6400)" />
      <path
         id="path93"
         d="M 3139.12,28845.3 H 0.00390625 V 25676.1 H 3139.12 v 3169.2"
         style="fill:#ffffff;fill-opacity:1;fill-rule:nonzero;stroke:none"
         transform="matrix(0.13333333,0,0,-0.13333333,0,6400)" />
      <path
         id="path94"
         d="M 3139.12,25584.6 H 0.00390625 V 22415.4 H 3139.12 v 3169.2"
         style="fill:#ffffff;fill-opacity:1;fill-rule:nonzero;stroke:none"
         transform="matrix(0.13333333,0,0,-0.13333333,0,6400)" />
      <path
         id="path95"
         d="m 15969.9,22323.9 v -3169.2 h 3093.4 v 3169.2 h -3093.4"
         style="fill:#ffffff;fill-opacity:1;fill-rule:nonzero;stroke:none"
         transform="matrix(0.13333333,0,0,-0.13333333,0,6400)" />
      <path
         id="path96"
         d="m 12785,19154.7 h 3093.4 v 3169.2 H 12785 v -3169.2"
         style="fill:#ffffff;fill-opacity:1;fill-rule:nonzero;stroke:none"
         transform="matrix(0.13333333,0,0,-0.13333333,0,6400)" />
      <path
         id="path97"
         d="m 9600.2,19154.7 h 3093.4 v 3169.2 H 9600.2 v -3169.2"
         style="fill:#ffffff;fill-opacity:1;fill-rule:nonzero;stroke:none"
         transform="matrix(0.13333333,0,0,-0.13333333,0,6400)" />
      <path
         id="path98"
         d="m 6415.37,19154.7 h 3093.4 v 3169.2 h -3093.4 v -3169.2"
         style="fill:#ffffff;fill-opacity:1;fill-rule:nonzero;stroke:none"
         transform="matrix(0.13333333,0,0,-0.13333333,0,6400)" />
      <path
         id="path99"
         d="m 3230.55,19154.7 h 3093.39 v 3169.2 H 3230.55 v -3169.2"
         style="fill:#ffffff;fill-opacity:1;fill-rule:nonzero;stroke:none"
         transform="matrix(0.13333333,0,0,-0.13333333,0,6400)" />
      <path
         id="path100"
         d="M 3139.12,22323.9 H 0.00390625 V 19154.7 H 3139.12 v 3169.2"
         style="fill:#ffffff;fill-opacity:1;fill-rule:nonzero;stroke:none"
         transform="matrix(0.13333333,0,0,-0.13333333,0,6400)" />
      <path
         id="path101"
         d="m 12310.4,39369.6 c -1010.1,0 -1831.9,821.7 -1831.9,1831.8 0,1010.1 821.8,1831.8 1831.9,1831.8 1010,0 1831.8,-821.7 1831.8,-1831.8 0,-1010.1 -821.8,-1831.8 -1831.8,-1831.8 z m 0,-5511.8 c -1010.1,0 -1831.9,821.8 -1831.9,1831.8 0,1010.1 821.8,1831.9 1831.9,1831.9 1010,0 1831.8,-821.8 1831.8,-1831.9 0,-1010 -821.8,-1831.8 -1831.8,-1831.8 z m -5511.79,5511.8 c -1010.08,0 -1831.84,821.7 -1831.84,1831.8 0,1010.1 821.76,1831.8 1831.84,1831.8 1010.08,0 1831.84,-821.7 1831.84,-1831.8 0,-1010.1 -821.76,-1831.8 -1831.84,-1831.8 z m 0,-5511.8 c -1010.08,0 -1831.84,821.8 -1831.84,1831.8 0,1010.1 821.76,1831.9 1831.84,1831.9 1010.08,0 1831.84,-821.8 1831.84,-1831.9 0,-1010 -821.76,-1831.8 -1831.84,-1831.8 z M 15719.2,44610.2 H 3389.79 V 32280.8 H 15719.2 v 12329.4"
         style="fill:#ffffff;fill-opacity:1;fill-rule:nonzero;stroke:none"
         transform="matrix(0.13333333,0,0,-0.13333333,0,6400)" />
      <path
         id="path102"
         d="m 6798.61,8630.4 c 1010.08,0 1831.84,-821.7 1831.84,-1831.8 0,-1010.1 -821.76,-1831.8 -1831.84,-1831.8 -1010.08,0 -1831.84,821.7 -1831.84,1831.8 0,1010.1 821.76,1831.8 1831.84,1831.8 z m 0,5511.8 c 1010.08,0 1831.84,-821.8 1831.84,-1831.8 0,-1010.1 -821.76,-1831.9 -1831.84,-1831.9 -1010.08,0 -1831.84,821.8 -1831.84,1831.9 0,1010 821.76,1831.8 1831.84,1831.8 z M 12310.4,8630.4 c 1010,0 1831.8,-821.7 1831.8,-1831.8 0,-1010.1 -821.8,-1831.8 -1831.8,-1831.8 -1010.1,0 -1831.9,821.7 -1831.9,1831.8 0,1010.1 821.8,1831.8 1831.9,1831.8 z m 0,5511.8 c 1010,0 1831.8,-821.8 1831.8,-1831.8 0,-1010.1 -821.8,-1831.9 -1831.8,-1831.9 -1010.1,0 -1831.9,821.8 -1831.9,1831.9 0,1010 821.8,1831.8 1831.9,1831.8 z M 3389.79,3389.8 H 15719.2 V 15719.2 H 3389.79 V 3389.8"
         style="fill:#ffffff;fill-opacity:1;fill-rule:nonzero;stroke:none"
         transform="matrix(0.13333333,0,0,-0.13333333,0,6400)" />
      <path
         id="path103"
         d="m 41201.4,39369.6 c -1010.1,0 -1831.8,821.7 -1831.8,1831.8 0,1010.1 821.7,1831.8 1831.8,1831.8 1010.1,0 1831.8,-821.7 1831.8,-1831.8 0,-1010.1 -821.7,-1831.8 -1831.8,-1831.8 z m 0,-5511.8 c -1010.1,0 -1831.8,821.8 -1831.8,1831.8 0,1010.1 821.7,1831.9 1831.8,1831.9 1010.1,0 1831.8,-821.8 1831.8,-1831.9 0,-1010 -821.7,-1831.8 -1831.8,-1831.8 z m -5511.8,5511.8 c -1010,0 -1831.8,821.7 -1831.8,1831.8 0,1010.1 821.8,1831.8 1831.8,1831.8 1010.1,0 1831.9,-821.7 1831.9,-1831.8 0,-1010.1 -821.8,-1831.8 -1831.9,-1831.8 z m 0,-5511.8 c -1010,0 -1831.8,821.8 -1831.8,1831.8 0,1010.1 821.8,1831.9 1831.8,1831.9 1010.1,0 1831.9,-821.8 1831.9,-1831.9 0,-1010 -821.8,-1831.8 -1831.9,-1831.8 z m 8920.6,10752.4 H 32280.8 V 32280.8 h 12329.4 v 12329.4"
         style="fill:#ffffff;fill-opacity:1;fill-rule:nonzero;stroke:none"
         transform="matrix(0.13333333,0,0,-0.13333333,0,6400)" />
      <path
         id="path104"
         d="m 35689.6,8630.4 c 1010.1,0 1831.9,-821.7 1831.9,-1831.8 0,-1010.1 -821.8,-1831.8 -1831.9,-1831.8 -1010,0 -1831.8,821.7 -1831.8,1831.8 0,1010.1 821.8,1831.8 1831.8,1831.8 z m 0,5511.8 c 1010.1,0 1831.9,-821.8 1831.9,-1831.8 0,-1010.1 -821.8,-1831.9 -1831.9,-1831.9 -1010,0 -1831.8,821.8 -1831.8,1831.9 0,1010 821.8,1831.8 1831.8,1831.8 z m 5511.8,-5511.8 c 1010.1,0 1831.8,-821.7 1831.8,-1831.8 0,-1010.1 -821.7,-1831.8 -1831.8,-1831.8 -1010.1,0 -1831.8,821.7 -1831.8,1831.8 0,1010.1 821.7,1831.8 1831.8,1831.8 z m 0,5511.8 c 1010.1,0 1831.8,-821.8 1831.8,-1831.8 0,-1010.1 -821.7,-1831.9 -1831.8,-1831.9 -1010.1,0 -1831.8,821.8 -1831.8,1831.9 0,1010 821.7,1831.8 1831.8,1831.8 z M 32280.8,3389.8 H 44610.2 V 15719.2 H 32280.8 V 3389.8"
         style="fill:#ffffff;fill-opacity:1;fill-rule:nonzero;stroke:none"
         transform="matrix(0.13333333,0,0,-0.13333333,0,6400)" />
      <path
         id="path105"
         d="m 41676.1,25676.1 v 3169.2 h 3093.4 v -3169.2 z m 3093.4,-3260.7 h -3093.4 v 3169.2 h 3093.4 z M 25676.1,15969.9 v 3093.4 h 3169.2 V 15969.9 Z M 28845.3,12785 h -3169.2 v 3093.4 h 3169.2 z m 0,-3184.8 h -3169.2 v 3093.4 h 3169.2 z m 0,-3184.8 h -3169.2 v 3093.4 h 3169.2 z m -6429.9,-91.5 h 3169.2 V 3230.5 h -3169.2 z m -3260.7,0 h 3169.2 V 3230.5 h -3169.2 z m 0,3184.9 h 3169.2 V 6415.4 h -3169.2 z m 0,3184.8 h 3169.2 V 9600.2 h -3169.2 z m 0,3184.8 h 3169.2 V 12785 h -3169.2 z m 0,3184.9 h 3169.2 v -3093.4 h -3169.2 z m -3184.8,3260.6 h 3093.4 V 19154.7 H 15969.9 Z M 3230.55,25584.6 H 6323.94 V 22415.4 H 3230.55 Z m 19093.35,6445.5 v -3093.4 h -3169.2 v 3093.4 z M 19154.7,35215 h 3169.2 v -3093.4 h -3169.2 z m 0,3184.8 h 3169.2 v -3093.4 h -3169.2 z m 0,3184.8 h 3169.2 v -3093.4 h -3169.2 z m 6429.9,91.5 h -3169.2 v 3093.4 h 3169.2 z m 3260.7,0 h -3169.2 v 3093.4 h 3169.2 z m 0,-3184.9 h -3169.2 v 3093.4 h 3169.2 z m 0,-3184.8 h -3169.2 v 3093.4 h 3169.2 z m 0,-3184.8 H 25676.1 V 35215 h 3169.2 z m 0,-3184.9 h -3169.2 v 3093.4 h 3169.2 z m 3184.8,-3260.6 h -3093.4 v 3169.2 h 3093.4 z m -6354,-6521.4 h -6456.8 l 4780.7,4780.7 1400.2,-1400.3 3380.5,-3380.4 z m -91.5,-12739.3 h -3169.2 v 3093.4 h 3169.2 z m 0,3184.8 h -3169.2 v 3093.4 h 3169.2 z m 0,3184.8 h -3169.2 v 3093.4 h 3169.2 z m 0,3184.9 h -3169.2 v 3093.4 h 3169.2 z m -3260.7,12875.4 h 6456.8 L 24000,24064.7 19219.3,28845.3 Z m 91.5,12739.3 h 3169.2 v -3093.4 h -3169.2 z m 0,-3184.8 h 3169.2 v -3093.4 h -3169.2 z m 0,-3184.8 h 3169.2 v -3093.4 h -3169.2 z m 0,-3184.9 h 3169.2 v -3093.4 h -3169.2 z m 12891,-6445.5 h 3093.4 v -3169.2 h -3093.4 z m -3184.8,0 H 35215 v -3169.2 h -3093.4 z m -3184.9,0 h 3093.4 v -3169.2 h -3093.4 z m -9782,-3260.7 v 6456.8 L 23935.4,24000 v 0 l -4780.7,-4780.7 z m -3184.8,3260.7 h 3093.4 v -3169.2 h -3093.4 z m -3184.9,0 h 3093.4 V 22415.4 H 12785 Z m -3184.8,0 h 3093.4 V 22415.4 H 9600.2 Z m -3184.83,0 h 3093.4 V 22415.4 H 6415.37 Z M 28845.3,22323.9 V 19219.3 L 24064.7,24000 v 0 l 1400.2,1400.2 3380.4,3380.5 v -3104.6 -91.5 -3169.2 z m 12739.3,91.5 h -3093.4 v 3169.2 h 3093.4 z m -3093.4,6429.9 h 3093.4 v -3169.2 h -3093.4 z m -3184.8,0 h 3093.4 v -3169.2 h -3093.4 z m -3184.8,0 H 35215 V 25676.1 H 32121.6 Z M 19154.7,44769.5 h 3169.2 V 41676.1 H 19154.7 Z M 15969.9,28845.3 h 3093.4 v -3169.2 h -3093.4 z m -3184.9,0 h 3093.4 V 25676.1 H 12785 Z m -3184.8,0 h 3093.4 V 25676.1 H 9600.2 Z m -3184.83,0 h 3093.4 v -3169.2 h -3093.4 z m -3184.82,0 H 6323.94 V 25676.1 H 3230.55 Z M 6323.94,19154.7 H 3230.55 v 3169.2 h 3093.39 z m 3184.83,0 h -3093.4 v 3169.2 h 3093.4 z m 3184.83,0 H 9600.2 v 3169.2 h 3093.4 z m 3184.8,0 H 12785 v 3169.2 h 3093.4 z M 28845.3,3230.5 h -3169.2 v 3093.4 h 3169.2 z m 3184.8,15924.2 h -3093.4 v 3169.2 h 3093.4 z m 3184.9,0 h -3093.4 v 3169.2 H 35215 Z m 3184.8,0 h -3093.4 v 3169.2 h 3093.4 z m 3184.8,0 h -3093.4 v 3169.2 h 3093.4 z m 3184.9,0 h -3093.4 v 3169.2 h 3093.4 z m 3230.5,9690.6 v 0 91.4 H 28936.7 v 64.7 3028.7 91.5 3093.4 91.4 3093.4 91.4 3093.4 91.5 3093.4 91.4 3139.1 h -45.7 -45.7 V 44860.9 H 25676.1 V 48000 h -45.8 -45.7 V 44860.9 H 22415.4 V 48000 h -45.7 -45.8 V 44860.9 H 19154.7 V 48000 h -45.7 -45.7 v -3139.1 -91.4 -3093.4 -91.5 -3093.4 -91.4 -3093.4 -91.4 -3093.4 -91.5 -3028.7 -64.7 h -64.7 -3028.7 -91.5 -3093.4 -91.4 -3093.4 -91.43 -3093.4 -91.43 H 3230.55 3139.12 0.00390625 0 v -91.4 H 0.00390625 3139.12 V 25676.1 H 0.00390625 0 v -91.5 H 0.00390625 3139.12 V 22415.4 H 0.00390625 0 v -91.5 H 0.00390625 3139.12 V 19154.7 H 0.00390625 0 v -91.4 H 0.00390625 3139.12 h 91.43 3093.39 91.43 3093.4 91.43 3093.4 91.4 3093.4 91.5 3028.7 64.7 v -64.7 -3028.7 -91.5 V 12785 12693.6 9600.2 9508.8 6415.4 6323.9 3230.5 3139.1 0 0 h 91.4 v 0 3139.1 h 3169.2 V 0 0 h 91.5 v 0 3139.1 h 3169.2 V 0 0 h 91.5 v 0 3139.1 h 3169.2 V 0 0 h 91.4 v 0 3139.1 91.4 3093.4 91.5 3093.4 91.4 3093.4 91.4 3093.4 91.5 3028.7 64.7 h 64.7 3028.7 91.5 3093.4 91.4 3093.4 91.4 3093.4 91.5 3093.4 91.4 3139.1 v 0 91.4 0 h -3139.1 v 3169.2 H 48000 v 0 91.5 0 h -3139.1 v 3169.2 H 48000 v 0 91.5 0 h -3139.1 v 3169.2 H 48000"
         style="fill:#000000;fill-opacity:1;fill-rule:nonzero;stroke:none"
         transform="matrix(0.13333333,0,0,-0.13333333,0,6400)" />
      <path
         id="path106"
         d="M 15719.2,32280.8 H 3389.79 V 44610.2 H 15719.2 Z m 91.4,12420.8 H 3298.36 V 32189.4 H 15810.6 v 12512.2"
         style="fill:#000000;fill-opacity:1;fill-rule:nonzero;stroke:none"
         transform="matrix(0.13333333,0,0,-0.13333333,0,6400)" />
      <path
         id="path107"
         d="M 3389.79,15719.2 H 15719.2 V 3389.8 H 3389.79 Z M 3298.36,3298.4 H 15810.6 V 15810.6 H 3298.36 V 3298.4"
         style="fill:#000000;fill-opacity:1;fill-rule:nonzero;stroke:none"
         transform="matrix(0.13333333,0,0,-0.13333333,0,6400)" />
      <path
         id="path108"
         d="M 44610.2,32280.8 H 32280.8 v 12329.4 h 12329.4 z m 91.4,12420.8 H 32189.4 V 32189.4 h 12512.2 v 12512.2"
         style="fill:#000000;fill-opacity:1;fill-rule:nonzero;stroke:none"
         transform="matrix(0.13333333,0,0,-0.13333333,0,6400)" />
      <path
         id="path109"
         d="M 32280.8,15719.2 H 44610.2 V 3389.8 H 32280.8 Z M 32189.4,3298.4 H 44701.6 V 15810.6 H 32189.4 V 3298.4"
         style="fill:#000000;fill-opacity:1;fill-rule:nonzero;stroke:none"
         transform="matrix(0.13333333,0,0,-0.13333333,0,6400)" />
      <path
         id="path110"
         d="m 8539.02,41201.4 c 0,-959.7 -780.75,-1740.4 -1740.41,-1740.4 -959.67,0 -1740.41,780.7 -1740.41,1740.4 0,959.7 780.74,1740.4 1740.41,1740.4 959.66,0 1740.41,-780.7 1740.41,-1740.4 z M 6798.61,39369.6 c 1010.08,0 1831.84,821.7 1831.84,1831.8 0,1010.1 -821.76,1831.8 -1831.84,1831.8 -1010.08,0 -1831.84,-821.7 -1831.84,-1831.8 0,-1010.1 821.76,-1831.8 1831.84,-1831.8"
         style="fill:#000000;fill-opacity:1;fill-rule:nonzero;stroke:none"
         transform="matrix(0.13333333,0,0,-0.13333333,0,6400)" />
      <path
         id="path111"
         d="m 8539.02,35689.6 c 0,-959.6 -780.75,-1740.4 -1740.41,-1740.4 -959.67,0 -1740.41,780.8 -1740.41,1740.4 0,959.7 780.74,1740.4 1740.41,1740.4 959.66,0 1740.41,-780.7 1740.41,-1740.4 z M 6798.61,33857.8 c 1010.08,0 1831.84,821.8 1831.84,1831.8 0,1010.1 -821.76,1831.9 -1831.84,1831.9 -1010.08,0 -1831.84,-821.8 -1831.84,-1831.9 0,-1010 821.76,-1831.8 1831.84,-1831.8"
         style="fill:#000000;fill-opacity:1;fill-rule:nonzero;stroke:none"
         transform="matrix(0.13333333,0,0,-0.13333333,0,6400)" />
      <path
         id="path112"
         d="m 14050.8,41201.4 c 0,-959.7 -780.8,-1740.4 -1740.4,-1740.4 -959.7,0 -1740.4,780.7 -1740.4,1740.4 0,959.7 780.7,1740.4 1740.4,1740.4 959.6,0 1740.4,-780.7 1740.4,-1740.4 z m -1740.4,-1831.8 c 1010,0 1831.8,821.7 1831.8,1831.8 0,1010.1 -821.8,1831.8 -1831.8,1831.8 -1010.1,0 -1831.9,-821.7 -1831.9,-1831.8 0,-1010.1 821.8,-1831.8 1831.9,-1831.8"
         style="fill:#000000;fill-opacity:1;fill-rule:nonzero;stroke:none"
         transform="matrix(0.13333333,0,0,-0.13333333,0,6400)" />
      <path
         id="path113"
         d="m 14050.8,35689.6 c 0,-959.6 -780.8,-1740.4 -1740.4,-1740.4 -959.7,0 -1740.4,780.8 -1740.4,1740.4 0,959.7 780.7,1740.4 1740.4,1740.4 959.6,0 1740.4,-780.7 1740.4,-1740.4 z m -1740.4,-1831.8 c 1010,0 1831.8,821.8 1831.8,1831.8 0,1010.1 -821.8,1831.9 -1831.8,1831.9 -1010.1,0 -1831.9,-821.8 -1831.9,-1831.9 0,-1010 821.8,-1831.8 1831.9,-1831.8"
         style="fill:#000000;fill-opacity:1;fill-rule:nonzero;stroke:none"
         transform="matrix(0.13333333,0,0,-0.13333333,0,6400)" />
      <path
         id="path114"
         d="m 35689.6,42941.8 c 959.7,0 1740.4,-780.7 1740.4,-1740.4 0,-959.7 -780.7,-1740.4 -1740.4,-1740.4 -959.6,0 -1740.4,780.7 -1740.4,1740.4 0,959.7 780.8,1740.4 1740.4,1740.4 z m 0,-3572.2 c 1010.1,0 1831.9,821.7 1831.9,1831.8 0,1010.1 -821.8,1831.8 -1831.9,1831.8 -1010,0 -1831.8,-821.7 -1831.8,-1831.8 0,-1010.1 821.8,-1831.8 1831.8,-1831.8"
         style="fill:#000000;fill-opacity:1;fill-rule:nonzero;stroke:none"
         transform="matrix(0.13333333,0,0,-0.13333333,0,6400)" />
      <path
         id="path115"
         d="m 35689.6,37430 c 959.7,0 1740.4,-780.7 1740.4,-1740.4 0,-959.6 -780.7,-1740.4 -1740.4,-1740.4 -959.6,0 -1740.4,780.8 -1740.4,1740.4 0,959.7 780.8,1740.4 1740.4,1740.4 z m 0,-3572.2 c 1010.1,0 1831.9,821.8 1831.9,1831.8 0,1010.1 -821.8,1831.9 -1831.9,1831.9 -1010,0 -1831.8,-821.8 -1831.8,-1831.9 0,-1010 821.8,-1831.8 1831.8,-1831.8"
         style="fill:#000000;fill-opacity:1;fill-rule:nonzero;stroke:none"
         transform="matrix(0.13333333,0,0,-0.13333333,0,6400)" />
      <path
         id="path116"
         d="m 42941.8,41201.4 c 0,-959.7 -780.7,-1740.4 -1740.4,-1740.4 -959.7,0 -1740.4,780.7 -1740.4,1740.4 0,959.7 780.7,1740.4 1740.4,1740.4 959.7,0 1740.4,-780.7 1740.4,-1740.4 z m -1740.4,-1831.8 c 1010.1,0 1831.8,821.7 1831.8,1831.8 0,1010.1 -821.7,1831.8 -1831.8,1831.8 -1010.1,0 -1831.8,-821.7 -1831.8,-1831.8 0,-1010.1 821.7,-1831.8 1831.8,-1831.8"
         style="fill:#000000;fill-opacity:1;fill-rule:nonzero;stroke:none"
         transform="matrix(0.13333333,0,0,-0.13333333,0,6400)" />
      <path
         id="path117"
         d="m 42941.8,35689.6 c 0,-959.6 -780.7,-1740.4 -1740.4,-1740.4 -959.7,0 -1740.4,780.8 -1740.4,1740.4 0,959.7 780.7,1740.4 1740.4,1740.4 959.7,0 1740.4,-780.7 1740.4,-1740.4 z m -1740.4,-1831.8 c 1010.1,0 1831.8,821.8 1831.8,1831.8 0,1010.1 -821.7,1831.9 -1831.8,1831.9 -1010.1,0 -1831.8,-821.8 -1831.8,-1831.9 0,-1010 821.7,-1831.8 1831.8,-1831.8"
         style="fill:#000000;fill-opacity:1;fill-rule:nonzero;stroke:none"
         transform="matrix(0.13333333,0,0,-0.13333333,0,6400)" />
      <path
         id="path118"
         d="m 6798.61,10570 c -959.67,0 -1740.41,780.7 -1740.41,1740.4 0,959.6 780.74,1740.4 1740.41,1740.4 959.66,0 1740.41,-780.8 1740.41,-1740.4 0,-959.7 -780.75,-1740.4 -1740.41,-1740.4 z m 0,3572.2 c -1010.08,0 -1831.84,-821.8 -1831.84,-1831.8 0,-1010.1 821.76,-1831.9 1831.84,-1831.9 1010.08,0 1831.84,821.8 1831.84,1831.9 0,1010 -821.76,1831.8 -1831.84,1831.8"
         style="fill:#000000;fill-opacity:1;fill-rule:nonzero;stroke:none"
         transform="matrix(0.13333333,0,0,-0.13333333,0,6400)" />
      <path
         id="path119"
         d="m 6798.61,5058.2 c -959.67,0 -1740.41,780.7 -1740.41,1740.4 0,959.7 780.74,1740.4 1740.41,1740.4 959.66,0 1740.41,-780.7 1740.41,-1740.4 0,-959.7 -780.75,-1740.4 -1740.41,-1740.4 z m 0,3572.2 c -1010.08,0 -1831.84,-821.7 -1831.84,-1831.8 0,-1010.1 821.76,-1831.8 1831.84,-1831.8 1010.08,0 1831.84,821.7 1831.84,1831.8 0,1010.1 -821.76,1831.8 -1831.84,1831.8"
         style="fill:#000000;fill-opacity:1;fill-rule:nonzero;stroke:none"
         transform="matrix(0.13333333,0,0,-0.13333333,0,6400)" />
      <path
         id="path120"
         d="m 12310.4,10570 c -959.7,0 -1740.4,780.7 -1740.4,1740.4 0,959.6 780.7,1740.4 1740.4,1740.4 959.6,0 1740.4,-780.8 1740.4,-1740.4 0,-959.7 -780.8,-1740.4 -1740.4,-1740.4 z m 0,3572.2 c -1010.1,0 -1831.9,-821.8 -1831.9,-1831.8 0,-1010.1 821.8,-1831.9 1831.9,-1831.9 1010,0 1831.8,821.8 1831.8,1831.9 0,1010 -821.8,1831.8 -1831.8,1831.8"
         style="fill:#000000;fill-opacity:1;fill-rule:nonzero;stroke:none"
         transform="matrix(0.13333333,0,0,-0.13333333,0,6400)" />
      <path
         id="path121"
         d="m 12310.4,5058.2 c -959.7,0 -1740.4,780.7 -1740.4,1740.4 0,959.7 780.7,1740.4 1740.4,1740.4 959.6,0 1740.4,-780.7 1740.4,-1740.4 0,-959.7 -780.8,-1740.4 -1740.4,-1740.4 z m 0,3572.2 c -1010.1,0 -1831.9,-821.7 -1831.9,-1831.8 0,-1010.1 821.8,-1831.8 1831.9,-1831.8 1010,0 1831.8,821.7 1831.8,1831.8 0,1010.1 -821.8,1831.8 -1831.8,1831.8"
         style="fill:#000000;fill-opacity:1;fill-rule:nonzero;stroke:none"
         transform="matrix(0.13333333,0,0,-0.13333333,0,6400)" />
      <path
         id="path122"
         d="m 35689.6,10570 c -959.6,0 -1740.4,780.7 -1740.4,1740.4 0,959.6 780.8,1740.4 1740.4,1740.4 959.7,0 1740.4,-780.8 1740.4,-1740.4 0,-959.7 -780.7,-1740.4 -1740.4,-1740.4 z m 0,3572.2 c -1010,0 -1831.8,-821.8 -1831.8,-1831.8 0,-1010.1 821.8,-1831.9 1831.8,-1831.9 1010.1,0 1831.9,821.8 1831.9,1831.9 0,1010 -821.8,1831.8 -1831.9,1831.8"
         style="fill:#000000;fill-opacity:1;fill-rule:nonzero;stroke:none"
         transform="matrix(0.13333333,0,0,-0.13333333,0,6400)" />
      <path
         id="path123"
         d="m 35689.6,5058.2 c -959.6,0 -1740.4,780.7 -1740.4,1740.4 0,959.7 780.8,1740.4 1740.4,1740.4 959.7,0 1740.4,-780.7 1740.4,-1740.4 0,-959.7 -780.7,-1740.4 -1740.4,-1740.4 z m 0,3572.2 c -1010,0 -1831.8,-821.7 -1831.8,-1831.8 0,-1010.1 821.8,-1831.8 1831.8,-1831.8 1010.1,0 1831.9,821.7 1831.9,1831.8 0,1010.1 -821.8,1831.8 -1831.9,1831.8"
         style="fill:#000000;fill-opacity:1;fill-rule:nonzero;stroke:none"
         transform="matrix(0.13333333,0,0,-0.13333333,0,6400)" />
      <path
         id="path124"
         d="m 41201.4,10570 c -959.7,0 -1740.4,780.7 -1740.4,1740.4 0,959.6 780.7,1740.4 1740.4,1740.4 959.7,0 1740.4,-780.8 1740.4,-1740.4 0,-959.7 -780.7,-1740.4 -1740.4,-1740.4 z m 0,3572.2 c -1010.1,0 -1831.8,-821.8 -1831.8,-1831.8 0,-1010.1 821.7,-1831.9 1831.8,-1831.9 1010.1,0 1831.8,821.8 1831.8,1831.9 0,1010 -821.7,1831.8 -1831.8,1831.8"
         style="fill:#000000;fill-opacity:1;fill-rule:nonzero;stroke:none"
         transform="matrix(0.13333333,0,0,-0.13333333,0,6400)" />
      <path
         id="path125"
         d="m 41201.4,5058.2 c -959.7,0 -1740.4,780.7 -1740.4,1740.4 0,959.7 780.7,1740.4 1740.4,1740.4 959.7,0 1740.4,-780.7 1740.4,-1740.4 0,-959.7 -780.7,-1740.4 -1740.4,-1740.4 z m 0,3572.2 c -1010.1,0 -1831.8,-821.7 -1831.8,-1831.8 0,-1010.1 821.7,-1831.8 1831.8,-1831.8 1010.1,0 1831.8,821.7 1831.8,1831.8 0,1010.1 -821.7,1831.8 -1831.8,1831.8"
         style="fill:#000000;fill-opacity:1;fill-rule:nonzero;stroke:none"
         transform="matrix(0.13333333,0,0,-0.13333333,0,6400)" />
    </g>
  </g>
</svg>
